<svg width="127" height="26" viewBox="0 0 127 26" fill="none" xmlns="http://www.w3.org/2000/svg">
<g clip-path="url(#clip0_48_418)">
<path d="M38.1581 19.6934V6.45947H40.5961V17.4248H46.5062V19.6934H38.1581Z" fill="#3A5088"/>
<path d="M51.7696 19.9582C50.8584 19.9582 50.0396 19.7691 49.3131 19.391C48.5866 19.0129 48.0141 18.4647 47.5955 17.7463C47.1768 17.0278 46.9675 16.1645 46.9675 15.1562V14.8537C46.9675 13.8454 47.1768 12.982 47.5955 12.2636C48.0141 11.5452 48.5866 10.9969 49.3131 10.6188C50.0396 10.2407 50.8584 10.0516 51.7696 10.0516C52.6807 10.0516 53.4995 10.2407 54.226 10.6188C54.9524 10.9969 55.525 11.5452 55.9437 12.2636C56.3623 12.982 56.5716 13.8454 56.5716 14.8537V15.1562C56.5716 16.1645 56.3623 17.0278 55.9437 17.7463C55.525 18.4647 54.9524 19.0129 54.226 19.391C53.4995 19.7691 52.6807 19.9582 51.7696 19.9582ZM51.7696 17.8407C52.4837 17.8407 53.0747 17.6076 53.5426 17.1413C54.0105 16.6623 54.2445 15.9817 54.2445 15.0995V14.9104C54.2445 14.0281 54.0105 13.3538 53.5426 12.8874C53.087 12.4085 52.496 12.169 51.7696 12.169C51.0554 12.169 50.4644 12.4085 49.9965 12.8874C49.5286 13.3538 49.2947 14.0281 49.2947 14.9104V15.0995C49.2947 15.9817 49.5286 16.6623 49.9965 17.1413C50.4644 17.6076 51.0554 17.8407 51.7696 17.8407Z" fill="#3A5088"/>
<path d="M57.4453 15.0427V14.7402C57.4453 13.7571 57.6361 12.9189 58.0178 12.2257C58.3995 11.52 58.9043 10.9843 59.5323 10.6188C60.1726 10.2407 60.8682 10.0516 61.6194 10.0516C62.4566 10.0516 63.0907 10.2028 63.5217 10.5053C63.9527 10.8078 64.2666 11.1229 64.4636 11.4506H64.7961V10.3163H67.0863V21.3572C67.0863 22 66.9016 22.5104 66.5322 22.8886C66.1628 23.2793 65.6704 23.4746 65.0546 23.4746H58.9228V21.395H64.242C64.5868 21.395 64.7591 21.206 64.7591 20.8278V18.389H64.4267C64.3036 18.5907 64.1312 18.7986 63.9096 19.0129C63.688 19.2145 63.3925 19.3847 63.023 19.5234C62.6536 19.662 62.1858 19.7314 61.6194 19.7314C60.8682 19.7314 60.1726 19.5485 59.5323 19.1831C58.9043 18.8049 58.3995 18.2693 58.0178 17.576C57.6361 16.8703 57.4453 16.0258 57.4453 15.0427ZM62.2843 17.6517C62.9984 17.6517 63.5956 17.4185 64.0758 16.9522C64.556 16.4858 64.7961 15.8305 64.7961 14.986V14.797C64.7961 13.9399 64.556 13.2845 64.0758 12.8307C63.6079 12.3644 63.0107 12.1312 62.2843 12.1312C61.5701 12.1312 60.9729 12.3644 60.4927 12.8307C60.0125 13.2845 59.7724 13.9399 59.7724 14.797V14.986C59.7724 15.8305 60.0125 16.4858 60.4927 16.9522C60.9729 17.4185 61.5701 17.6517 62.2843 17.6517Z" fill="#3A5088"/>
<path d="M73.1941 19.9582C72.2829 19.9582 71.4641 19.7691 70.7376 19.391C70.0111 19.0129 69.4386 18.4647 69.02 17.7463C68.6014 17.0278 68.392 16.1645 68.392 15.1562V14.8537C68.392 13.8454 68.6014 12.982 69.02 12.2636C69.4386 11.5452 70.0111 10.9969 70.7376 10.6188C71.4641 10.2407 72.2829 10.0516 73.1941 10.0516C74.1052 10.0516 74.924 10.2407 75.6505 10.6188C76.3769 10.9969 76.9495 11.5452 77.3682 12.2636C77.7868 12.982 77.9961 13.8454 77.9961 14.8537V15.1562C77.9961 16.1645 77.7868 17.0278 77.3682 17.7463C76.9495 18.4647 76.3769 19.0129 75.6505 19.391C74.924 19.7691 74.1052 19.9582 73.1941 19.9582ZM73.1941 17.8407C73.9082 17.8407 74.4992 17.6076 74.9671 17.1413C75.435 16.6623 75.6689 15.9817 75.6689 15.0995V14.9104C75.6689 14.0281 75.435 13.3538 74.9671 12.8874C74.5115 12.4085 73.9205 12.169 73.1941 12.169C72.4799 12.169 71.8889 12.4085 71.421 12.8874C70.9531 13.3538 70.7192 14.0281 70.7192 14.9104V15.0995C70.7192 15.9817 70.9531 16.6623 71.421 17.1413C71.8889 17.6076 72.4799 17.8407 73.1941 17.8407Z" fill="#3A5088"/>
<path d="M79.313 19.6935V10.3162H81.6404V19.6935H79.313ZM80.4767 9.21977C80.0576 9.21977 79.7012 9.08108 79.4052 8.80377C79.1222 8.52654 78.9806 8.161 78.9806 7.70728C78.9806 7.25354 79.1222 6.88803 79.4052 6.61075C79.7012 6.33347 80.0576 6.19482 80.4767 6.19482C80.9077 6.19482 81.2649 6.33347 81.5475 6.61075C81.8309 6.88803 81.9729 7.25354 81.9729 7.70728C81.9729 8.161 81.8309 8.52654 81.5475 8.80377C81.2649 9.08108 80.9077 9.21977 80.4767 9.21977Z" fill="#3A5088"/>
<path d="M83.3879 23.4746V10.3163H85.6779V11.4506H86.0105C86.2192 11.0851 86.5455 10.7637 86.9892 10.4864C87.4321 10.1966 88.0663 10.0516 88.8918 10.0516C89.63 10.0516 90.3134 10.2407 90.9413 10.6188C91.5699 10.9843 92.0747 11.5262 92.4557 12.2447C92.8375 12.9631 93.0288 13.8328 93.0288 14.8537V15.1562C93.0288 16.1771 92.8375 17.0467 92.4557 17.7651C92.0747 18.4835 91.5699 19.0318 90.9413 19.4099C90.3134 19.7754 89.63 19.9582 88.8918 19.9582C88.3378 19.9582 87.8695 19.8889 87.4877 19.7502C87.1186 19.6242 86.8169 19.4603 86.5828 19.2586C86.3613 19.0444 86.1827 18.8301 86.047 18.6159H85.7144V23.4746H83.3879ZM88.1893 17.8785C88.9164 17.8785 89.5133 17.6454 89.9808 17.179C90.461 16.7001 90.7015 16.0069 90.7015 15.0995V14.9104C90.7015 14.0029 90.461 13.316 89.9808 12.8496C89.5006 12.3707 88.9037 12.1312 88.1893 12.1312C87.4758 12.1312 86.8781 12.3707 86.3978 12.8496C85.9176 13.316 85.6779 14.0029 85.6779 14.9104V15.0995C85.6779 16.0069 85.9176 16.7001 86.3978 17.179C86.8781 17.6454 87.4758 17.8785 88.1893 17.8785Z" fill="#3A5088"/>
<path d="M98.1395 19.9582C96.9449 19.9582 95.9662 19.6935 95.2026 19.1641C94.4398 18.6348 93.9779 17.8785 93.8175 16.8955L95.9599 16.3283C96.0464 16.7695 96.1877 17.116 96.3853 17.3681C96.5941 17.6202 96.8465 17.803 97.1426 17.9164C97.4497 18.0172 97.7823 18.0676 98.1395 18.0676C98.6816 18.0676 99.0817 17.9731 99.3397 17.784C99.5984 17.5824 99.7278 17.3366 99.7278 17.0467C99.7278 16.7568 99.6048 16.5363 99.3587 16.385C99.1119 16.2212 98.7181 16.0888 98.1768 15.988L97.6593 15.8934C97.0187 15.7674 96.4345 15.5973 95.9051 15.383C95.3749 15.1562 94.9502 14.8473 94.6303 14.4566C94.3105 14.066 94.1501 13.5618 94.1501 12.9442C94.1501 12.0115 94.4827 11.2994 95.1479 10.8078C95.8122 10.3037 96.6869 10.0516 97.7704 10.0516C98.792 10.0516 99.6421 10.2847 100.319 10.7511C100.996 11.2175 101.439 11.8287 101.649 12.585L99.4881 13.2656C99.3897 12.7867 99.1865 12.4463 98.8785 12.2447C98.5824 12.043 98.2133 11.9422 97.7704 11.9422C97.3267 11.9422 96.9886 12.0241 96.7544 12.1879C96.5203 12.3392 96.4036 12.5535 96.4036 12.8307C96.4036 13.1332 96.5266 13.3601 96.7727 13.5113C97.0187 13.65 97.3513 13.7571 97.7704 13.8328L98.2871 13.9273C98.9769 14.0533 99.5984 14.2235 100.152 14.4378C100.719 14.6394 101.162 14.9356 101.483 15.3263C101.815 15.7044 101.981 16.2212 101.981 16.8766C101.981 17.8597 101.63 18.6222 100.929 19.1641C100.239 19.6935 99.3095 19.9582 98.1395 19.9582Z" fill="#3A5088"/>
<path d="M106.68 19.8448C105.966 19.8448 105.338 19.6809 104.796 19.3532C104.266 19.013 103.854 18.5466 103.558 17.9542C103.263 17.3618 103.115 16.6812 103.115 15.9124V10.3163H105.443V15.7233C105.443 16.4291 105.608 16.9585 105.941 17.3114C106.286 17.6643 106.772 17.8408 107.4 17.8408C108.114 17.8408 108.668 17.6013 109.062 17.1224C109.457 16.6308 109.653 15.9502 109.653 15.0805V10.3163H111.981V19.6935H109.69V18.4647H109.358C109.21 18.7798 108.933 19.0885 108.527 19.391C108.121 19.6935 107.505 19.8448 106.68 19.8448Z" fill="#3A5088"/>
<path d="M113.739 19.6935V10.3162H116.029V11.3372H116.361C116.522 11.0221 116.787 10.7511 117.156 10.5242C117.525 10.2847 118.012 10.165 118.615 10.165C119.267 10.165 119.791 10.2974 120.185 10.562C120.579 10.8141 120.88 11.1481 121.09 11.5641H121.422C121.632 11.1608 121.927 10.8267 122.309 10.562C122.691 10.2974 123.232 10.165 123.934 10.165C124.5 10.165 125.012 10.2911 125.467 10.5432C125.935 10.7826 126.305 11.1544 126.575 11.6586C126.859 12.1501 127 12.774 127 13.5303V19.6935H124.673V13.7004C124.673 13.1836 124.543 12.7992 124.285 12.5471C124.027 12.2825 123.663 12.1501 123.196 12.1501C122.666 12.1501 122.253 12.3265 121.958 12.6795C121.675 13.0198 121.533 13.5113 121.533 14.1541V19.6935H119.206V13.7004C119.206 13.1836 119.077 12.7992 118.818 12.5471C118.559 12.2825 118.197 12.1501 117.728 12.1501C117.199 12.1501 116.786 12.3265 116.491 12.6795C116.207 13.0198 116.066 13.5113 116.066 14.1541V19.6935H113.739Z" fill="#3A5088"/>
<path d="M30.7826 12.6041C30.7826 9.26128 29.4853 6.05536 27.1761 3.69164C24.8669 1.32793 21.735 4.38356e-07 18.4694 0C15.2038 -4.38355e-07 12.0719 1.32793 9.76268 3.69164C7.45349 6.05536 6.15621 9.26128 6.15621 12.6041H10.0041C11.2792 12.6041 12.2736 11.5103 12.7407 10.2958C13.0473 9.49837 13.5126 8.76558 14.116 8.14783C15.2706 6.96598 16.8366 6.30203 18.4694 6.30203C20.1022 6.30203 21.6682 6.96598 22.8228 8.14783C23.9774 9.32969 24.626 10.9327 24.626 12.6041H30.7826Z" fill="url(#paint0_linear_48_418)"/>
<path d="M23.6891 17.4275C24.3079 15.8982 24.6264 14.2593 24.6264 12.6041H30.7823C30.7823 19.5651 25.2695 25.2081 18.4691 25.2081C17.4042 25.2081 16.3707 25.0697 15.3852 24.8096C15.9428 24.6625 16.4909 24.4752 17.0252 24.2487C18.5191 23.6153 19.8765 22.6869 21.0199 21.5165C22.1633 20.3461 23.0703 18.9567 23.6891 17.4275Z" fill="#FBCF8E"/>
<path d="M0 12.604C-2.31325e-07 14.2592 0.31849 15.8982 0.937284 17.4274C1.55608 18.9566 2.46306 20.3461 3.60645 21.5165C4.74983 22.6868 6.10723 23.6152 7.60113 24.2487C9.09503 24.8821 10.6962 25.2081 12.3132 25.2081C13.9302 25.2081 15.5313 24.8821 17.0252 24.2487C18.5191 23.6152 19.8765 22.6868 21.0199 21.5165C22.1633 20.3461 23.0703 18.9566 23.6891 17.4274C24.3079 15.8982 24.6264 14.2592 24.6264 12.604H20.7785C19.5034 12.604 18.509 13.6978 18.0419 14.9122C18.0287 14.9468 18.015 14.9813 18.0011 15.0157C17.6917 15.7803 17.2383 16.4751 16.6665 17.0602C16.0949 17.6454 15.4161 18.1097 14.6692 18.4264C13.9223 18.7431 13.1217 18.9061 12.3132 18.9061C11.5047 18.9061 10.7041 18.7431 9.9572 18.4264C9.2102 18.1097 8.53154 17.6454 7.9598 17.0602C7.38812 16.4751 6.93464 15.7803 6.62524 15.0157C6.31584 14.2511 6.15659 13.4316 6.15659 12.604H0Z" fill="url(#paint1_linear_48_418)"/>
<path d="M0.00147247 12.6041C0.00147247 5.64301 5.51426 0 12.3146 0C13.3793 0 14.4125 0.138325 15.3979 0.398387C13.2835 0.955963 11.3329 2.08435 9.76262 3.69165C7.45346 6.05534 6.1562 9.26128 6.1562 12.6041H0.00147247Z" fill="#73E5E2"/>
</g>
<defs>
<linearGradient id="paint0_linear_48_418" x1="30.7826" y1="6.30203" x2="6.15621" y2="6.30203" gradientUnits="userSpaceOnUse">
<stop stop-color="#73E5E2"/>
<stop offset="1" stop-color="#394F87"/>
</linearGradient>
<linearGradient id="paint1_linear_48_418" x1="8.07339e-07" y1="18.9061" x2="24.6264" y2="18.9061" gradientUnits="userSpaceOnUse">
<stop stop-color="#FBDC8E"/>
<stop offset="1" stop-color="#FB958E"/>
</linearGradient>
<clipPath id="clip0_48_418">
<rect width="127" height="26" fill="white"/>
</clipPath>
</defs>
</svg>
